<?xml version="1.0" encoding="utf-8"?>
<!-- Generator: Adobe Illustrator 24.3.0, SVG Export Plug-In . SVG Version: 6.00 Build 0)  -->
<svg version="1.1" xmlns="http://www.w3.org/2000/svg" xmlns:xlink="http://www.w3.org/1999/xlink" x="0px" y="0px"
	 viewBox="0 0 110 87.2" style="enable-background:new 0 0 110 87.2;" xml:space="preserve">
<style type="text/css">
	.st0{display:none;}
	.st1{display:inline;fill:none;stroke:#FF9205;stroke-width:4;stroke-linecap:round;stroke-linejoin:round;stroke-miterlimit:10;}
	.st2{display:inline;fill:#FF9205;}
	.st3{display:inline;}
	.st4{fill:none;stroke:#FF9205;stroke-width:4;stroke-linecap:round;stroke-linejoin:round;stroke-miterlimit:10;}
	.st5{fill:#FF9205;}
	.st6{fill:#303133;}
</style>
<g id="圖層_1" class="st0">
	<g id="圖層_1_1_">
		<path class="st1" d="M31.5,79.9c0,0,11.7,0,27.2,0c18.1,0,16.4-17,2-17c-18.9,0-17.7-19.3,0-19.3h5.4"/>
		<path class="st2" d="M22.8,22.9c-11.2,0-20.2,9-20.2,20.2c0,15.2,20.2,37.6,20.2,37.6S43,58.3,43,43.2C43,32,33.9,22.9,22.8,22.9z
			 M22.8,50.4c-4,0-7.2-3.2-7.2-7.2s3.2-7.2,7.2-7.2s7.2,3.2,7.2,7.2S26.7,50.4,22.8,50.4z"/>
		<path class="st2" d="M95.4,10.3l-1-4.8H73.1v40.3h4.7V29.2H91l1,4.7h16.6V10.3H95.4z"/>
		<g id="圖層_2_1_" class="st3">
			<g>
				<path class="st4" d="M87.1,37.4c9.9,0,18,8,18,18c0,9.9-8,18-18,18c-9.9,0-18-8-18-18c0-6.6,3.6-12.4,8.9-15.5"/>
				<path class="st4" d="M31.2,39.5c5.7,3,9.7,9,9.7,15.9c0,9.9-8,18-18,18s-18-8-18-18c0-9.9,8-18,18-18"/>
				<polyline class="st4" points="60.5,26.4 38,26.4 54.9,55.4 87.1,55.4 70.5,27 				"/>
				<polyline class="st4" points="22.9,55.4 38,26.4 43.5,15.8 32.5,15.8 				"/>
				<line class="st4" x1="54.9" y1="55.4" x2="76.6" y2="15.8"/>
				<line class="st4" x1="81.7" y1="15.8" x2="66.9" y2="15.8"/>
				<path class="st4" d="M52,55.4c0,1.6,1.3,2.9,2.9,2.9c1.6,0,2.9-1.3,2.9-2.9c0-1.6-1.3-2.9-2.9-2.9S52,53.8,52,55.4z"/>
			</g>
		</g>
	</g>
	<g id="圖層_2_2_">
		<g class="st3">
			<g>
				<path class="st5" d="M23.8,30.1h-16c-2.9,0-5.3-2.4-5.3-5.3v-16c0-2.9,2.4-5.3,5.3-5.3h16c2.9,0,5.3,2.4,5.3,5.3v16
					C29.1,27.8,26.7,30.1,23.8,30.1z M7.8,7.1C6.8,7.1,6,7.9,6,8.8v16c0,1,0.8,1.8,1.8,1.8h16c1,0,1.8-0.8,1.8-1.8v-16
					c0-1-0.8-1.8-1.8-1.8h-16V7.1z"/>
			</g>
			<g>
				<path class="st5" d="M12.6,24.5c-1,0-1.7-0.8-1.7-1.7V11c0-1,0.8-1.7,1.7-1.7h3.8c2.9,0,5.3,2.4,5.3,5.3s-2.4,5.3-5.3,5.3h-2
					v2.9C14.3,23.8,13.6,24.5,12.6,24.5z M14.3,16.4h2c1,0,1.8-0.8,1.8-1.8s-0.8-1.8-1.8-1.8h-2C14.3,12.8,14.3,16.4,14.3,16.4z"/>
			</g>
			<g>
				<path class="st5" d="M30.7,47c2.3,0,4.5,0.4,6.6,1.2l5.5-10.9l-2.1-4.6l-4.1,0.5c-1,0-3.6-3-3.6-4s0.8-1.9,1.9-1.9h17.6
					c1,0,1.9,0.8,1.9,1.9c0,1-0.8,1.9-1.9,1.9l-7.9,1.1l1.8,3.8h27.4l-3.3-7.4c-0.4-0.9,0-2,0.9-2.5C71.5,26,71.8,26,72,26h12.6
					c2.9,0,4.9,1.5,5.8,3.5c0.4,0.8,0.5,1.6,0.5,2.5c0,0.9-0.2,1.7-0.6,2.5c-1,2-3.1,3.5-6.5,3.5c-1,0-1.9-0.8-1.9-1.9
					s0.8-1.9,1.9-1.9c1.8,0,2.8-0.6,3.2-1.4c0.1-0.3,0.2-0.6,0.2-0.9c0-0.3-0.1-0.6-0.2-0.9c-0.3-0.7-1.2-1.3-2.4-1.3h-9.7
					l15.9,34.9c0.4,0.9,0,2-0.9,2.4s-2,0-2.5-0.9l-6-13.3c-1,0.6-1.9,1.3-2.7,2.1c-2.7,2.7-4.3,6.3-4.3,10.4S76,73,78.7,75.7
					C81.4,78.4,85,80,89.1,80s7.7-1.6,10.4-4.3c2.7-2.7,4.3-6.3,4.3-10.4s-1.6-7.7-4.3-10.4c-2.7-2.7-6.3-4.3-10.4-4.3
					c-0.5,0-0.9,0-1.4,0.1l-1.6-3.5c1-0.2,2-0.2,3-0.2c5.1,0,9.7,2.1,13,5.4c3.3,3.3,5.4,7.9,5.4,13s-2.1,9.7-5.4,13
					s-7.9,5.4-13,5.4s-9.7-2.1-13-5.4s-5.4-7.9-5.4-13s2.1-9.7,5.4-13c1.1-1.1,2.4-2.1,3.7-2.9l-3.7-8.1l-14,21c0.6,0.8,1,1.9,1,3
					c0,2.8-2.3,5.2-5.2,5.2c-2.2,0-4.1-1.4-4.8-3.3H30.7c-1,0-1.9-0.8-1.9-1.8c0-0.3,0.1-0.7,0.3-1l6.5-12.9
					c-1.5-0.5-3.2-0.8-4.9-0.8c-4.1,0-7.7,1.6-10.4,4.3S16,61.4,16,65.5s1.6,7.7,4.3,10.4c2.7,2.7,6.3,4.3,10.4,4.3
					s7.7-1.6,10.4-4.3c1.6-1.6,2.8-3.5,3.5-5.6h3.9c-0.9,3.1-2.5,6-4.8,8.2c-3.3,3.3-7.9,5.4-13,5.4s-9.7-2.1-13-5.4
					s-5.4-7.9-5.4-13s2.1-9.7,5.4-13C21,49,25.6,47,30.7,47L30.7,47z M58,60.2c0.4,0,0.8,0,1.1,0.1l13.8-20.7H48l9.6,20.6
					C57.7,60.2,57.8,60.2,58,60.2L58,60.2z M53.1,63.5c0.3-0.7,0.6-1.2,1.1-1.7l-9.4-20.3l-11.1,22h11.6c-0.4-3.2-1.9-6.2-4-8.4
					l1.7-3.5c0.3,0.2,0.5,0.5,0.7,0.7c2.9,2.9,4.9,6.8,5.3,11.2H53.1L53.1,63.5z"/>
			</g>
			<path class="st5" d="M14,28.8v17.8c0,1,0.8,1.7,1.7,1.7c0.9,0,1.7-0.8,1.7-1.7V28.8H14z"/>
		</g>
	</g>
	<g id="圖層_3" class="st3">
		<g>
			<path class="st5" d="M103.3,1.8H80.5c-2.8,0-5,2.2-5,5v22.8c0,2.8,2.2,5,5,5h22.8c2.8,0,5-2.2,5-5V6.8
				C108.3,4.1,106.1,1.8,103.3,1.8z M92.7,22.5h-2.9v4.2c0,1.4-1.1,2.5-2.5,2.5s-2.5-1.1-2.5-2.5V9.9c0-1.4,1.1-2.5,2.5-2.5h5.3
				c4.2,0,7.5,3.4,7.5,7.5C100.2,19.1,96.9,22.5,92.7,22.5z"/>
			<path class="st5" d="M92.7,12.4h-2.9v5.1h2.9c1.4,0,2.6-1.2,2.6-2.6S94.1,12.4,92.7,12.4z"/>
		</g>
		<path class="st5" d="M100.2,79.1H91c0-0.1,0-0.1,0-0.2c5.3-3.9,8.6-10.2,8.5-17.2c-0.3-11.5-9.8-20.6-21.3-20.3
			c-2.7,0.1-5.3,0.6-7.8,1.7c-0.2-0.3-4.6-8.3-4.8-8.6c0.3-0.2,0.6-0.4,0.8-0.6c0.9-0.8,1.3-1.9,1.3-3.1c0-1.2-0.5-2.3-1.3-3.1
			c-0.6-0.6-1.8-1.3-3.5-1.3h-3.8c-1,0-1.9,0.8-1.9,1.9c0,1,0.8,1.9,1.9,1.9h3.8c0.4,0,0.8,0.1,1,0.3c0.2,0.2,0.2,0.3,0.2,0.4
			c0,0.3,0,0.7-1.1,0.7c-1,0-1.9,0.8-1.9,1.9c0,0.4,0.2,0.9,0.3,1c0,0,0.8,1.5,1,2H38.8c-0.1-0.2-1.9-3.8-2.2-4.3c0.3,0,0.7,0,0.7,0
			c1,0,1.9-0.8,1.9-1.9c0-1-0.8-1.9-1.9-1.9h-8.1c-1,0-1.9,0.8-1.9,1.9c0,1,0.8,1.9,1.9,1.9c0,0,3,0,3.2,0c0.1,0.2,3,5.9,3.1,6.1
			c-0.1,0.2-3.4,5.3-3.6,5.6c-1.4-0.8-2.9-1.3-4.5-1.7c-1.7-0.4-3.4-0.6-5.1-0.6c-11.5,0-20.8,9.3-20.8,20.8s9.3,20.8,20.8,20.8
			c5.3,0,10.3-2,14.1-5.6c3.8-3.5,6.1-8.3,6.6-13.4c0.3,0,5.6,0,5.6,0c1.5,0,2.3-0.3,3-1l0,0C64.3,41.9,64.3,41.9,64.9,41
			c0.3,0.5,2.1,3.8,2.3,4.1c-2.8,1.9-5.2,4.5-6.8,7.5c-1.7,3.2-2.5,6.7-2.5,10.3c0.2,6.6,3.3,12.3,8.2,16c0,0.1,0,0.3-0.1,0.4h-9.4
			c-1.1,0-1.9,0.9-1.9,1.9s0.9,1.9,1.9,1.9h21c0.5,0,1.1,0,1.6,0c0.2,0,0.4,0,0.6,0h20.5c1.1,0,1.9-0.9,1.9-1.9
			S101.3,79.1,100.2,79.1z M33,48.8c1.7,1.4,3.1,3.1,4.2,5c1.1,2,1.8,4.1,2,6.4H25.6C26,59.6,32.7,49.2,33,48.8z M33.7,74.7
			c-3.2,2.9-7.2,4.5-11.5,4.5c-9.4,0-17.1-7.7-17.1-17.1S12.8,45,22.2,45c2.7,0,5.2,0.6,7.6,1.8C29.6,47.2,20.6,61,20.6,61
			c-0.2,0.3-0.3,0.7-0.3,1s0.1,0.6,0.2,0.9c0.3,0.6,1,1,1.6,1c0,0,16.5,0,17,0C38.7,68,36.8,71.9,33.7,74.7z M42.9,60.2
			c-0.3-2.9-1.1-5.6-2.5-8.2c-1.4-2.5-3.2-4.6-5.4-6.3c0.2-0.3,2.1-3.3,2.5-3.8c0.3,0.6,9.1,17.8,9.3,18.3H42.9z M50,58.3
			c-0.3-0.6-9.1-17.8-9.4-18.3h20.3C60.6,40.6,50.4,57.7,50,58.3z M76.4,79.1c-2.1-0.3-4.2-1-6-2c0.4-1.1,1.1-2.1,1.9-3
			c1.7-1.8,3.8-2.7,6.2-2.7c3.6,0,6.8,2.4,8.1,5.9c-1.8,0.9-3.7,1.6-5.7,1.8C80.9,79.1,76.4,79.1,76.4,79.1z M61.6,62.5
			c-0.1-2.9,0.6-5.8,1.9-8.3c1.3-2.4,3.1-4.5,5.3-6.1C69.1,48.5,77,63,77,63c0.3,0.6,1,1,1.7,1c0.3,0,0.6-0.1,0.8-0.2
			c0.4-0.2,0.8-0.6,0.9-1.1c0.1-0.2,0.1-0.4,0.1-0.6c0-0.3-0.1-0.6-0.2-0.8c0,0-7.9-14.5-8.1-14.9c1.9-0.8,4-1.2,6.1-1.3
			c9.4-0.2,17.2,7.2,17.5,16.7c0.1,5.3-2.2,10.1-5.9,13.3c-0.6-1.3-1.4-2.5-2.4-3.5c-1.2-1.2-2.5-2.2-4-2.9c-1.6-0.7-3.2-1.1-5-1.1
			c-1.7,0-3.4,0.4-5,1.1c-1.5,0.7-2.9,1.7-4,2.9c-0.9,1-1.7,2.1-2.3,3.4C63.9,71.8,61.7,67.4,61.6,62.5z"/>
	</g>
	<g id="圖層_4">
		<g class="st3">
			<path class="st5" d="M103.3,1.8H80.5c-2.8,0-5,2.2-5,5v22.8c0,2.8,2.2,5,5,5h22.8c2.8,0,5-2.2,5-5V6.8
				C108.3,4.1,106.1,1.8,103.3,1.8z M92.7,22.5h-2.9v4.2c0,1.4-1.1,2.5-2.5,2.5s-2.5-1.1-2.5-2.5V9.9c0-1.4,1.1-2.5,2.5-2.5h5.3
				c4.2,0,7.5,3.4,7.5,7.5C100.2,19.1,96.9,22.5,92.7,22.5z"/>
			<path class="st5" d="M92.7,12.4h-2.9v5.1h2.9c1.4,0,2.6-1.2,2.6-2.6S94.1,12.4,92.7,12.4z"/>
		</g>
		<path class="st2" d="M4.7,64.9c0,9.3,7.6,16.9,16.9,16.9c8.9,0,16.2-6.9,16.9-15.6h5.4l0,0l0,0h2.2c0.7,0,1.3-0.6,1.3-1.3
			c0-6.8,5.6-15.4,11.4-17.9c0.2,1.2,0.4,2.4,0.6,3.5c-4.8,3-8,8.3-8,14.4c0,9.3,7.6,16.9,16.9,16.9c1.6,0,3.3-0.2,4.8-0.7
			c0.7-0.2,1.1-1,0.9-1.7s-1-1.1-1.7-0.9c-1.3,0.4-2.7,0.6-4.1,0.6c-7.9,0-14.2-6.4-14.2-14.2c0-4.8,2.4-9.1,6-11.6
			c1.4,4.6,3.6,9,7.3,12.6c0.3,0.3,0.6,0.4,0.9,0.4s0.7-0.1,1-0.4c0.5-0.5,0.5-1.4,0-1.9c-3.4-3.4-5.5-7.6-6.7-12.1
			c1.8-0.8,3.7-1.2,5.8-1.2c2.8,0,5.5,0.8,7.8,2.3c0.6,0.4,1.4,0.2,1.8-0.4c0.4-0.6,0.2-1.4-0.4-1.8c-2.8-1.8-6-2.8-9.2-2.8
			c-2.3,0-4.5,0.5-6.4,1.3c-0.3-1.3-0.5-2.7-0.7-4.1c0-0.1,0-0.2,0-0.3l0,0c-0.3-2.6-0.4-5.1-0.4-7.5h7.6c1.7,0,3.1,1.4,3.1,3.1
			s-1.4,3.1-3.1,3.1c-0.7,0-1.3,0.6-1.3,1.3s0.6,1.3,1.3,1.3c3.2,0,5.8-2.6,5.8-5.8s-2.6-5.8-5.8-5.8h-8.9c-0.7,0-1.3,0.6-1.3,1.3
			c0,2.6,0.1,5.4,0.4,8.3c-3.3,1.2-6.6,4-9.2,7.8c-2.5,3.7-4.1,7.8-4.4,11.5l0,0l-7.9-21.8h1.6c0.7,0,1.3-0.6,1.3-1.3
			s-0.6-1.3-1.3-1.3h-6.4c-0.7,0-1.3,0.6-1.3,1.3s0.6,1.3,1.3,1.3H34l2.1,5.7l-4,4.2c-2.9-2.3-6.6-3.7-10.6-3.7
			C12.3,48,4.7,55.6,4.7,64.9z M32.3,55.5c1.9,2.2,3.2,5,3.5,8.1H24.7L32.3,55.5z M42,63.6h-3.5c-0.3-3.9-1.9-7.4-4.4-10.1l3-3.2
			L42,63.6z M7.4,64.9c0-7.9,6.4-14.2,14.2-14.2c3.3,0,6.3,1.1,8.7,3L20.6,64c-0.4,0.4-0.5,1-0.3,1.4c0.2,0.5,0.7,0.8,1.2,0.8h14.2
			c-0.7,7.2-6.8,12.9-14.2,12.9C13.8,79.2,7.4,72.8,7.4,64.9z"/>
		<path class="st2" d="M78.6,60.5v20c0,0.7,0.6,1.3,1.3,1.3h6.7c0.7,0,1.3-0.6,1.3-1.3v-20c0-1.7,1.4-3.1,3.1-3.1s3.1,1.4,3.1,3.1
			v20c0,0.7,0.6,1.3,1.3,1.3h6.7c0.7,0,1.3-0.6,1.3-1.3v-20c0-6.9-5.6-12.5-12.5-12.5C84.2,48,78.6,53.6,78.6,60.5z M81.3,60.5
			c0-5.4,4.4-9.8,9.8-9.8s9.8,4.4,9.8,9.8v18.7h-4V60.5c0-3.2-2.6-5.8-5.8-5.8c-3.2,0-5.8,2.6-5.8,5.8v18.7h-4V60.5z"/>
	</g>
</g>
<g id="圖層_2">
	<g id="圖層_3_1_">
		<g>
			<path class="st6" d="M103.3,1.8H80.5c-2.8,0-5,2.2-5,5v22.8c0,2.8,2.2,5,5,5h22.8c2.8,0,5-2.2,5-5V6.8
				C108.3,4.1,106.1,1.8,103.3,1.8z M92.7,22.5h-2.9v4.2c0,1.4-1.1,2.5-2.5,2.5s-2.5-1.1-2.5-2.5V9.9c0-1.4,1.1-2.5,2.5-2.5h5.3
				c4.2,0,7.5,3.4,7.5,7.5C100.2,19.1,96.9,22.5,92.7,22.5z"/>
			<path class="st6" d="M92.7,12.4h-2.9v5.1h2.9c1.4,0,2.6-1.2,2.6-2.6S94.1,12.4,92.7,12.4z"/>
		</g>
		<path class="st6" d="M100.2,79.1H91c0-0.1,0-0.1,0-0.2c5.3-3.9,8.6-10.2,8.5-17.2c-0.3-11.5-9.8-20.6-21.3-20.3
			c-2.7,0.1-5.3,0.6-7.8,1.7c-0.2-0.3-4.6-8.3-4.8-8.6c0.3-0.2,0.6-0.4,0.8-0.6c0.9-0.8,1.3-1.9,1.3-3.1c0-1.2-0.5-2.3-1.3-3.1
			c-0.6-0.6-1.8-1.3-3.5-1.3h-3.8c-1,0-1.9,0.8-1.9,1.9c0,1,0.8,1.9,1.9,1.9h3.8c0.4,0,0.8,0.1,1,0.3c0.2,0.2,0.2,0.3,0.2,0.4
			c0,0.3,0,0.7-1.1,0.7c-1,0-1.9,0.8-1.9,1.9c0,0.4,0.2,0.9,0.3,1c0,0,0.8,1.5,1,2H38.8c-0.1-0.2-1.9-3.8-2.2-4.3c0.3,0,0.7,0,0.7,0
			c1,0,1.9-0.8,1.9-1.9c0-1-0.8-1.9-1.9-1.9h-8.1c-1,0-1.9,0.8-1.9,1.9c0,1,0.8,1.9,1.9,1.9c0,0,3,0,3.2,0c0.1,0.2,3,5.9,3.1,6.1
			c-0.1,0.2-3.4,5.3-3.6,5.6c-1.4-0.8-2.9-1.3-4.5-1.7c-1.7-0.4-3.4-0.6-5.1-0.6c-11.5,0-20.8,9.3-20.8,20.8s9.3,20.8,20.8,20.8
			c5.3,0,10.3-2,14.1-5.6c3.8-3.5,6.1-8.3,6.6-13.4c0.3,0,5.6,0,5.6,0c1.5,0,2.3-0.3,3-1l0,0C64.3,41.9,64.3,41.9,64.9,41
			c0.3,0.5,2.1,3.8,2.3,4.1c-2.8,1.9-5.2,4.5-6.8,7.5c-1.7,3.2-2.5,6.7-2.5,10.3c0.2,6.6,3.3,12.3,8.2,16c0,0.1,0,0.3-0.1,0.4h-9.4
			c-1.1,0-1.9,0.9-1.9,1.9s0.9,1.9,1.9,1.9h21c0.5,0,1.1,0,1.6,0c0.2,0,0.4,0,0.6,0h20.5c1.1,0,1.9-0.9,1.9-1.9
			S101.3,79.1,100.2,79.1z M33,48.8c1.7,1.4,3.1,3.1,4.2,5c1.1,2,1.8,4.1,2,6.4H25.6C26,59.6,32.7,49.2,33,48.8z M33.7,74.7
			c-3.2,2.9-7.2,4.5-11.5,4.5c-9.4,0-17.1-7.7-17.1-17.1S12.8,45,22.2,45c2.7,0,5.2,0.6,7.6,1.8C29.6,47.2,20.6,61,20.6,61
			c-0.2,0.3-0.3,0.7-0.3,1s0.1,0.6,0.2,0.9c0.3,0.6,1,1,1.6,1c0,0,16.5,0,17,0C38.7,68,36.8,71.9,33.7,74.7z M42.9,60.2
			c-0.3-2.9-1.1-5.6-2.5-8.2c-1.4-2.5-3.2-4.6-5.4-6.3c0.2-0.3,2.1-3.3,2.5-3.8c0.3,0.6,9.1,17.8,9.3,18.3H42.9z M50,58.3
			c-0.3-0.6-9.1-17.8-9.4-18.3h20.3C60.6,40.6,50.4,57.7,50,58.3z M76.4,79.1c-2.1-0.3-4.2-1-6-2c0.4-1.1,1.1-2.1,1.9-3
			c1.7-1.8,3.8-2.7,6.2-2.7c3.6,0,6.8,2.4,8.1,5.9c-1.8,0.9-3.7,1.6-5.7,1.8C80.9,79.1,76.4,79.1,76.4,79.1z M61.6,62.5
			c-0.1-2.9,0.6-5.8,1.9-8.3c1.3-2.4,3.1-4.5,5.3-6.1C69.1,48.5,77,63,77,63c0.3,0.6,1,1,1.7,1c0.3,0,0.6-0.1,0.8-0.2
			c0.4-0.2,0.8-0.6,0.9-1.1c0.1-0.2,0.1-0.4,0.1-0.6c0-0.3-0.1-0.6-0.2-0.8c0,0-7.9-14.5-8.1-14.9c1.9-0.8,4-1.2,6.1-1.3
			c9.4-0.2,17.2,7.2,17.5,16.7c0.1,5.3-2.2,10.1-5.9,13.3c-0.6-1.3-1.4-2.5-2.4-3.5c-1.2-1.2-2.5-2.2-4-2.9c-1.6-0.7-3.2-1.1-5-1.1
			c-1.7,0-3.4,0.4-5,1.1c-1.5,0.7-2.9,1.7-4,2.9c-0.9,1-1.7,2.1-2.3,3.4C63.9,71.8,61.7,67.4,61.6,62.5z"/>
	</g>
</g>
</svg>
