<?xml version="1.0" encoding="utf-8"?>
<!-- Generator: Adobe Illustrator 24.3.0, SVG Export Plug-In . SVG Version: 6.00 Build 0)  -->
<svg version="1.1" xmlns="http://www.w3.org/2000/svg" xmlns:xlink="http://www.w3.org/1999/xlink" x="0px" y="0px"
	 viewBox="0 0 110 87.2" style="enable-background:new 0 0 110 87.2;" xml:space="preserve">
<style type="text/css">
	.st0{display:none;}
	.st1{display:inline;}
	.st2{fill:none;stroke:#FF9205;stroke-width:4;stroke-linecap:round;stroke-linejoin:round;stroke-miterlimit:10;}
	.st3{fill:#FF9205;}
	.st4{display:inline;fill:#FF9205;}
	.st5{fill:none;stroke:#303133;stroke-width:4;stroke-linecap:round;stroke-linejoin:round;stroke-miterlimit:10;}
	.st6{fill:#303133;}
	.st7{fill:#303133;stroke:#FF9205;stroke-width:4;stroke-linecap:round;stroke-linejoin:round;stroke-miterlimit:10;}
</style>
<g id="圖層_1" class="st0">
	<g id="圖層_1_1_" class="st1">
		<path class="st2" d="M31.5,79.9c0,0,11.7,0,27.2,0c18.1,0,16.4-17,2-17c-18.9,0-17.7-19.3,0-19.3h5.4"/>
		<path class="st3" d="M22.8,22.9c-11.2,0-20.2,9-20.2,20.2c0,15.2,20.2,37.6,20.2,37.6S43,58.3,43,43.2C43,32,33.9,22.9,22.8,22.9z
			 M22.8,50.4c-4,0-7.2-3.2-7.2-7.2s3.2-7.2,7.2-7.2s7.2,3.2,7.2,7.2S26.7,50.4,22.8,50.4z"/>
		<path class="st3" d="M95.4,10.3l-1-4.8H73.1v40.3h4.7V29.2H91l1,4.7h16.6V10.3H95.4z"/>
		<g id="圖層_2_1_" class="st0">
			<g class="st1">
				<path class="st2" d="M87.1,37.4c9.9,0,18,8,18,18c0,9.9-8,18-18,18c-9.9,0-18-8-18-18c0-6.6,3.6-12.4,8.9-15.5"/>
				<path class="st2" d="M31.2,39.5c5.7,3,9.7,9,9.7,15.9c0,9.9-8,18-18,18s-18-8-18-18c0-9.9,8-18,18-18"/>
				<polyline class="st2" points="60.5,26.4 38,26.4 54.9,55.4 87.1,55.4 70.5,27 				"/>
				<polyline class="st2" points="22.9,55.4 38,26.4 43.5,15.8 32.5,15.8 				"/>
				<line class="st2" x1="54.9" y1="55.4" x2="76.6" y2="15.8"/>
				<line class="st2" x1="81.7" y1="15.8" x2="66.9" y2="15.8"/>
				<path class="st2" d="M52,55.4c0,1.6,1.3,2.9,2.9,2.9c1.6,0,2.9-1.3,2.9-2.9c0-1.6-1.3-2.9-2.9-2.9S52,53.8,52,55.4z"/>
			</g>
		</g>
	</g>
	<g id="圖層_2_2_">
		<g class="st1">
			<g>
				<path class="st3" d="M23.8,30.1h-16c-2.9,0-5.3-2.4-5.3-5.3v-16c0-2.9,2.4-5.3,5.3-5.3h16c2.9,0,5.3,2.4,5.3,5.3v16
					C29.1,27.8,26.7,30.1,23.8,30.1z M7.8,7.1C6.8,7.1,6,7.9,6,8.8v16c0,1,0.8,1.8,1.8,1.8h16c1,0,1.8-0.8,1.8-1.8v-16
					c0-1-0.8-1.8-1.8-1.8h-16V7.1z"/>
			</g>
			<g>
				<path class="st3" d="M12.6,24.5c-1,0-1.7-0.8-1.7-1.7V11c0-1,0.8-1.7,1.7-1.7h3.8c2.9,0,5.3,2.4,5.3,5.3s-2.4,5.3-5.3,5.3h-2
					v2.9C14.3,23.8,13.6,24.5,12.6,24.5z M14.3,16.4h2c1,0,1.8-0.8,1.8-1.8s-0.8-1.8-1.8-1.8h-2C14.3,12.8,14.3,16.4,14.3,16.4z"/>
			</g>
			<g>
				<path class="st3" d="M30.7,47c2.3,0,4.5,0.4,6.6,1.2l5.5-10.9l-2.1-4.6l-4.1,0.5c-1,0-3.6-3-3.6-4s0.8-1.9,1.9-1.9h17.6
					c1,0,1.9,0.8,1.9,1.9c0,1-0.8,1.9-1.9,1.9l-7.9,1.1l1.8,3.8h27.4l-3.3-7.4c-0.4-0.9,0-2,0.9-2.5C71.5,26,71.8,26,72,26h12.6
					c2.9,0,4.9,1.5,5.8,3.5c0.4,0.8,0.5,1.6,0.5,2.5c0,0.9-0.2,1.7-0.6,2.5c-1,2-3.1,3.5-6.5,3.5c-1,0-1.9-0.8-1.9-1.9
					s0.8-1.9,1.9-1.9c1.8,0,2.8-0.6,3.2-1.4c0.1-0.3,0.2-0.6,0.2-0.9c0-0.3-0.1-0.6-0.2-0.9c-0.3-0.7-1.2-1.3-2.4-1.3h-9.7
					l15.9,34.9c0.4,0.9,0,2-0.9,2.4s-2,0-2.5-0.9l-6-13.3c-1,0.6-1.9,1.3-2.7,2.1c-2.7,2.7-4.3,6.3-4.3,10.4S76,73,78.7,75.7
					C81.4,78.4,85,80,89.1,80s7.7-1.6,10.4-4.3c2.7-2.7,4.3-6.3,4.3-10.4s-1.6-7.7-4.3-10.4c-2.7-2.7-6.3-4.3-10.4-4.3
					c-0.5,0-0.9,0-1.4,0.1l-1.6-3.5c1-0.2,2-0.2,3-0.2c5.1,0,9.7,2.1,13,5.4c3.3,3.3,5.4,7.9,5.4,13s-2.1,9.7-5.4,13
					s-7.9,5.4-13,5.4s-9.7-2.1-13-5.4s-5.4-7.9-5.4-13s2.1-9.7,5.4-13c1.1-1.1,2.4-2.1,3.7-2.9l-3.7-8.1l-14,21c0.6,0.8,1,1.9,1,3
					c0,2.8-2.3,5.2-5.2,5.2c-2.2,0-4.1-1.4-4.8-3.3H30.7c-1,0-1.9-0.8-1.9-1.8c0-0.3,0.1-0.7,0.3-1l6.5-12.9
					c-1.5-0.5-3.2-0.8-4.9-0.8c-4.1,0-7.7,1.6-10.4,4.3S16,61.4,16,65.5s1.6,7.7,4.3,10.4c2.7,2.7,6.3,4.3,10.4,4.3
					s7.7-1.6,10.4-4.3c1.6-1.6,2.8-3.5,3.5-5.6h3.9c-0.9,3.1-2.5,6-4.8,8.2c-3.3,3.3-7.9,5.4-13,5.4s-9.7-2.1-13-5.4
					s-5.4-7.9-5.4-13s2.1-9.7,5.4-13C21,49,25.6,47,30.7,47L30.7,47z M58,60.2c0.4,0,0.8,0,1.1,0.1l13.8-20.7H48l9.6,20.6
					C57.7,60.2,57.8,60.2,58,60.2L58,60.2z M53.1,63.5c0.3-0.7,0.6-1.2,1.1-1.7l-9.4-20.3l-11.1,22h11.6c-0.4-3.2-1.9-6.2-4-8.4
					l1.7-3.5c0.3,0.2,0.5,0.5,0.7,0.7c2.9,2.9,4.9,6.8,5.3,11.2H53.1L53.1,63.5z"/>
			</g>
			<path class="st3" d="M14,28.8v17.8c0,1,0.8,1.7,1.7,1.7c0.9,0,1.7-0.8,1.7-1.7V28.8H14z"/>
		</g>
	</g>
	<g id="圖層_3">
		<path class="st4" d="M98.4,80.3h-8.9V80c5.1-3.8,8.3-9.9,8.1-16.8c-0.3-11.1-9.6-20-20.8-19.8c-2.6,0.1-5.2,0.6-7.6,1.7
			c-0.2-0.3-4.5-8.1-4.7-8.4c0.3-0.2,0.6-0.4,0.8-0.6c0.8-0.8,1.3-1.9,1.3-3c0-1.2-0.5-2.2-1.3-3c-0.6-0.6-1.7-1.3-3.5-1.3h-3.7
			c-1,0-1.8,0.8-1.8,1.8s0.8,1.8,1.8,1.8h3.7c0.4,0,0.7,0.1,0.9,0.3s0.2,0.3,0.2,0.4c0,0.3,0,0.7-1.1,0.7c-1,0-1.8,0.8-1.8,1.8
			c0,0.4,0.2,0.8,0.3,1c0,0,0.8,1.5,1,1.9h-23c-0.1-0.2-1.9-3.7-2.2-4.2c0.3,0,0.7,0,0.7,0c1,0,1.8-0.8,1.8-1.8s-0.8-1.8-1.8-1.8
			h-7.9c-1,0-1.8,0.8-1.8,1.8s0.8,1.8,1.8,1.8c0,0,2.9,0,3.1,0c0.1,0.2,2.9,5.8,3,6c-0.1,0.2-3.4,5.2-3.5,5.5
			c-1.4-0.7-2.9-1.3-4.4-1.7c-1.6-0.4-3.3-0.6-5-0.6c-11.2,0-20.3,9.1-20.3,20.3s9.1,20.3,20.3,20.3c5.1,0,10-1.9,13.8-5.4
			c3.7-3.4,6-8.1,6.4-13.1c0.3,0,5.5,0,5.5,0c1.5,0,2.2-0.3,2.9-1l0,0c12.4-20.9,12.5-20.8,13-21.7c0.3,0.5,2.1,3.8,2.2,4
			c-2.8,1.9-5.1,4.4-6.6,7.3c-1.7,3.1-2.5,6.6-2.4,10.1c0.2,6.3,3.2,11.9,7.8,15.6v0.5h-9.1c-1,0-1.9,0.8-1.9,1.9
			c0,1,0.8,1.9,1.9,1.9h20.5c0.5,0,1.1,0,1.6,0c0.2,0,0.4,0,0.6,0h20c1,0,1.9-0.8,1.9-1.9C100.2,81.2,99.4,80.3,98.4,80.3z
			 M32.5,50.8c1.7,1.4,3.1,3,4.1,4.9c1.1,1.9,1.7,4,2,6.2H25.4C25.7,61.3,32.3,51.1,32.5,50.8z M33.3,76c-3.1,2.8-7.1,4.4-11.3,4.4
			c-9.2,0-16.7-7.5-16.7-16.7C5.3,54.5,12.8,47,22,47c2.6,0,5.1,0.6,7.5,1.8c-0.2,0.4-9,13.9-9,13.9c-0.2,0.3-0.3,0.6-0.3,1
			c0,0.3,0.1,0.6,0.2,0.9c0.3,0.6,0.9,1,1.6,1c0,0,16.2,0,16.6,0C38.2,69.6,36.3,73.3,33.3,76z M42.3,61.9c-0.3-2.8-1.1-5.5-2.4-8
			c-1.3-2.4-3.1-4.5-5.3-6.2c0.2-0.3,2.1-3.2,2.4-3.7c0.3,0.6,8.9,17.4,9.1,17.9H42.3z M49.2,60.1c-0.3-0.6-8.9-17.4-9.2-17.9h19.8
			C59.6,42.7,49.6,59.5,49.2,60.1z M75.1,80.3c-2.4-0.3-4.6-1.1-6.5-2.3V64.1c0-2.8,1.2-5.3,3-7c2,3.7,4.2,7.6,4.2,7.6
			c0.3,0.6,1,1,1.6,0.9c0.3,0,0.6-0.1,0.8-0.2c0.4-0.2,0.7-0.6,0.9-1.1c0.1-0.2,0.1-0.4,0.1-0.6c0-0.3-0.1-0.6-0.2-0.8
			c0,0-2.2-3.9-4.2-7.7c0.8-0.3,1.6-0.4,2.5-0.4c4.7,0,8.6,4.2,8.6,9.3v14.1c-1.9,1.1-4,1.9-6.3,2.2L75.1,80.3L75.1,80.3z
			 M76.8,47.1c9.2-0.2,16.9,7.1,17.1,16.3c0.1,4.5-1.6,8.7-4.5,11.8V64.1c0-3.5-1.3-6.7-3.6-9.2c-1.1-1.2-2.5-2.2-3.9-2.8
			c-1.5-0.7-3.2-1-4.8-1c-1.5,0-2.9,0.3-4.3,0.8c-1.1-1.9-1.8-3.4-1.9-3.5C72.8,47.6,74.8,47.1,76.8,47.1z M60.6,64.2
			c-0.1-2.8,0.6-5.7,1.9-8.2c1.2-2.4,3-4.4,5.2-5.9c0.1,0.1,0.9,1.6,2,3.6c-0.5,0.4-0.9,0.8-1.3,1.2c-2.3,2.5-3.6,5.7-3.6,9.2v10.7
			C62.2,72,60.7,68.3,60.6,64.2z"/>
		<g class="st1">
			<path class="st3" d="M103.3,1.8H80.5c-2.8,0-5,2.2-5,5v22.8c0,2.8,2.2,5,5,5h22.8c2.8,0,5-2.2,5-5V6.8
				C108.3,4.1,106.1,1.8,103.3,1.8z M92.7,22.5h-2.9v4.2c0,1.4-1.1,2.5-2.5,2.5s-2.5-1.1-2.5-2.5V9.9c0-1.4,1.1-2.5,2.5-2.5h5.3
				c4.2,0,7.5,3.4,7.5,7.5C100.2,19.1,96.9,22.5,92.7,22.5z"/>
			<path class="st3" d="M92.7,12.4h-2.9v5.1h2.9c1.4,0,2.6-1.2,2.6-2.6S94.1,12.4,92.7,12.4z"/>
		</g>
	</g>
</g>
<g id="圖層_2">
	<path class="st5" d="M30.9,80.7c0,0,11.7,0,27.2,0c18.1,0,16.4-17,2-17c-18.9,0-17.7-19.3,0-19.3h5.4"/>
	<path class="st6" d="M22.2,23.7C11,23.7,2,32.7,2,43.9c0,15.2,20.2,37.6,20.2,37.6S42.4,59.1,42.4,44
		C42.4,32.8,33.3,23.7,22.2,23.7z M22.2,51.2c-4,0-7.2-3.2-7.2-7.2s3.2-7.2,7.2-7.2s7.2,3.2,7.2,7.2S26.1,51.2,22.2,51.2z"/>
	<path class="st6" d="M94.8,11.1l-1-4.8H72.5v40.3h4.7V30h13.2l1,4.7H108V11.1H94.8z"/>
	<g id="圖層_2_3_" class="st0">
		<g class="st1">
			<path class="st7" d="M86.5,38.2c9.9,0,18,8,18,18c0,9.9-8,18-18,18c-9.9,0-18-8-18-18c0-6.6,3.6-12.4,8.9-15.5"/>
			<path class="st7" d="M30.6,40.3c5.7,3,9.7,9,9.7,15.9c0,9.9-8,18-18,18s-18-8-18-18c0-9.9,8-18,18-18"/>
			<polyline class="st7" points="59.9,27.2 37.4,27.2 54.3,56.2 86.5,56.2 69.9,27.8 			"/>
			<polyline class="st7" points="22.3,56.2 37.4,27.2 42.9,16.6 31.9,16.6 			"/>
			<line class="st7" x1="54.3" y1="56.2" x2="76" y2="16.6"/>
			<line class="st7" x1="81.1" y1="16.6" x2="66.3" y2="16.6"/>
			<path class="st7" d="M51.4,56.2c0,1.6,1.3,2.9,2.9,2.9c1.6,0,2.9-1.3,2.9-2.9c0-1.6-1.3-2.9-2.9-2.9S51.4,54.6,51.4,56.2z"/>
		</g>
	</g>
</g>
</svg>
