<?xml version="1.0" encoding="utf-8"?>
<!-- Generator: Adobe Illustrator 24.2.1, SVG Export Plug-In . SVG Version: 6.00 Build 0)  -->
<svg version="1.1" id="圖層_1" xmlns="http://www.w3.org/2000/svg" xmlns:xlink="http://www.w3.org/1999/xlink" x="0px" y="0px"
	 viewBox="0 0 282.7 308.8" style="enable-background:new 0 0 282.7 308.8;" xml:space="preserve">
<style type="text/css">
	.st0{fill:#2E2F2F;}
	.st1{fill:#F08B1A;}
	.st2{fill:#D22B19;}
	.st3{fill:#FFFFFF;}
</style>
<path class="st0" d="M89.8,230.5L89.8,230.5c0-28.4,11.5-54.1,30-73l21.4,40.2c-5.9,9.5-9.4,20.7-9.4,32.8v0.1v0.1
	c0,17.1,7,32.6,18.3,43.9c11.2,11.2,26.8,18.2,43.9,18.2h0.1h0.1c17.1,0,32.7-7,43.9-18.3c11.2-11.2,18.2-26.7,18.2-43.9v0v-0.1
	c0-17.1-7-32.6-18.3-43.9c-11.2-11.2-26.8-18.2-43.9-18.2H194h-0.1c-4.8,0-9.4,0.5-13.9,1.6l31.1,58.4l-24.6,13.1l-11.9-22.4
	l0.1-0.1c-21.4-40.1-42.8-80-64.1-120c-31.2,14-48,34.2-65.1,54.5c-10.5,12.5-21,25.1-35,37c-0.2,0.2-0.4,0.3-0.6,0.5v67
	c0,22.1,17.9,40.1,40.1,40.1h64.7c-15.6-18.2-25-41.8-25-67.5V230.5z"/>
<path class="st1" d="M110.3,12.9c-1.9,5.8-2,13.1-1,19.7c0.3,2,0.7,3.9,1.2,5.6c0.5,1.5,1,3,1.6,4.2c0.1,0.2,0.2,0.4,0.3,0.5
	c0,0,0,0,0,0c0.1,0.2,0.1,0.3,0.1,0.3l47.3,88.7c10.7-3.7,22.2-5.7,34.1-5.8h0.1h0.1c28.7,0,54.7,11.8,73.6,30.7
	c1.8,1.8,3.6,3.7,5.3,5.7V12.9H110.3z"/>
<g>
	<g>
		<path class="st2" d="M193,197.9c-15.9,0-28.6,13-28.6,28.6c0,18.3,25.7,46.1,26.7,47.4c0.5,0.5,1.3,0.8,1.9,0.8
			c0.8,0,1.6-0.3,1.9-0.8c1.1-1.1,26.7-29.1,26.7-47.4C221.5,210.6,208.8,197.9,193,197.9z"/>
		<path class="st3" d="M193,276.4c-1.1,0-2.3-0.5-3-1.3l-0.1-0.1c-0.1-0.1-0.3-0.4-0.6-0.7c-9.9-11.3-26.5-32.5-26.5-47.8
			c0-16.7,13.6-30.3,30.3-30.3c8.1,0,15.7,3.1,21.4,8.8c5.7,5.7,8.8,13.3,8.8,21.4c0,18.6-24.8,45.9-27.1,48.4
			C195.6,275.8,194.4,276.4,193,276.4z M192.3,272.7c0.2,0.2,0.5,0.3,0.6,0.3c0.2,0,0.3,0,0.4-0.1l0,0l0.2-0.2
			c0.3-0.3,26.2-28.4,26.2-46.2c0-14.8-12.1-26.9-26.9-26.9c-14.8,0-26.9,12.1-26.9,26.9c0,10.3,9.4,27,25.7,45.6
			C192.1,272.4,192.2,272.6,192.3,272.7z"/>
	</g>
	<circle class="st3" cx="193" cy="226.5" r="13.2"/>
</g>
<path class="st1" d="M87.6,56l-0.1-0.2c-0.6-1.1,0.3,0.6-0.5-0.9c-1.3-2.6-2.4-5.6-3.4-8.7c-0.9-3-1.6-6.2-2.1-9.5
	c-1.1-7.6-1.2-15.9,0.2-23.8H46.5C26,14.7,10,31.9,10,52.8v99.1c4.8-5.4,9.5-10.8,14-16.3c18.9-22.6,37.6-45,73.3-61.3L87.6,56z"/>
</svg>
