<?xml version="1.0" encoding="utf-8"?>
<!-- Generator: Adobe Illustrator 24.2.1, SVG Export Plug-In . SVG Version: 6.00 Build 0)  -->
<svg version="1.1" id="圖層_1" xmlns="http://www.w3.org/2000/svg" xmlns:xlink="http://www.w3.org/1999/xlink" x="0px" y="0px"
	 viewBox="0 0 760.7 241.9" style="enable-background:new 0 0 760.7 241.9;" xml:space="preserve">
<style type="text/css">
	.st0{fill:#2E2F2F;}
	.st1{fill:#F08B1A;}
	.st2{fill:#D22B19;}
	.st3{fill:#FFFFFF;}
</style>
<path class="st0" d="M2777.3,2101.8L2777.3,2101.8c0-20.6,8.4-39.4,21.8-53.1l15.6,29.2c-4.3,6.9-6.8,15.1-6.8,23.8v0v0.1
	c0,12.5,5.1,23.8,13.3,32c8.2,8.2,19.5,13.2,32,13.2h0h0.1c12.5,0,23.8-5.1,32-13.3c8.2-8.2,13.2-19.5,13.2-32v0v-0.1
	c0-12.5-5.1-23.8-13.3-31.9c-8.2-8.2-19.5-13.2-32-13.2h0h-0.1c-3.5,0-6.9,0.4-10.1,1.2l22.6,42.5l-17.9,9.6l-8.7-16.3l0.1,0
	c-15.6-29.2-31.1-58.2-46.6-87.4c-22.7,10.2-35,24.9-47.4,39.7c-7.6,9.1-15.3,18.2-25.4,26.9c-0.1,0.1-0.3,0.2-0.4,0.3v48.8
	c0,16.1,13.1,29.2,29.2,29.2h47.1C2784.2,2137.7,2777.3,2120.6,2777.3,2101.8L2777.3,2101.8z"/>
<g>
	<path class="st0" d="M2964,2132.3h17.1v5.9h-26.9v-31.7h9.8V2132.3z"/>
	<path class="st0" d="M3028.8,2132.2h-13.4l-2.3,5.9h-10.5l14.9-31.7h9.2l15,31.7h-10.5L3028.8,2132.2z M3017.8,2126.3h8.7l-4.4-11
		L3017.8,2126.3z"/>
	<path class="st0" d="M3098.7,2138.1h-9.7l-14.4-19.7v19.7h-9.8v-31.7h9.8l14.4,19.7v-19.7h9.8V2138.1z"/>
	<path class="st0" d="M3150.1,2124.7h-15.4v7.6h18.2v5.9h-28v-31.7h28.1v5.9h-18.3v6.7h15.4V2124.7z"/>
</g>
<g>
	<path class="st0" d="M3285.8,2106.5l9.1,22l9-22h12.9v31.7h-9.8v-7.4l0.9-15.1l-9.8,22.5h-6.5l-9.9-22.6l0.9,15.2v7.4h-9.8v-31.7
		H3285.8z"/>
	<path class="st0" d="M3366.7,2132.2h-13.4l-2.3,5.9h-10.5l14.9-31.7h9.2l15,31.7H3369L3366.7,2132.2z M3355.6,2126.3h8.7l-4.4-11
		L3355.6,2126.3z"/>
	<path class="st0" d="M3412.4,2127.4v10.7h-9.8v-31.7h16.2c3.1,0,5.9,0.4,8.3,1.3c2.4,0.9,4.2,2.2,5.6,3.8s2,3.5,2,5.6
		c0,3.1-1.4,5.6-4.3,7.4s-6.7,2.8-11.7,2.8H3412.4z M3412.4,2121.5h6.4c1.9,0,3.3-0.4,4.3-1.1s1.5-1.8,1.5-3.1
		c0-1.5-0.5-2.7-1.5-3.5c-1-0.9-2.4-1.3-4.2-1.3h-6.5V2121.5z"/>
</g>
<path class="st0" d="M3006.2,2090.9c-5.1,0-9.5-1-13.2-3.1c-3.7-2.1-5.6-5.7-5.6-10.9c0-3.3,0.8-7,2.5-11c2.3,2.5,4.4,4.3,6.4,5.3
	c2,1,4.1,1.5,6.4,1.5c6.3,0,11.1-3.5,14.2-10.6c3.1-7.1,4.7-15,4.7-23.6c0-16.1-6-24.1-18.1-24.1c-3.4,0-6.3,0.2-8.7,0.6l-15.6,72.8
	h-27.4l25.9-120.9l28.1-3.8l-8.9,42.2h1.1c4.8,0,9.3-1.6,13.5-4.7c4.2-3.1,7.5-7,10.1-11.8c2.5-4.8,3.8-9.5,3.8-14.4
	c0-5.8-2.1-10.7-6.2-14.6c-4.1-3.9-10.4-5.9-18.9-5.9c-7.7,0-15.3,1.7-22.6,5.2c-7.3,3.5-13.3,8.7-18,15.7c-4.6,7-6.9,15.4-6.9,25.3
	c0,4.7,0.4,8,1.3,9.8c0.9,1.8,1.3,2.9,1.3,3.1c-6.7,0-11.8-1.4-15.2-4.1c-3.4-2.7-5.1-7.2-5.1-13.4c0-8.6,3.2-16.8,9.7-24.5
	c6.5-7.7,15-14,25.7-18.7c10.6-4.8,21.9-7.1,33.6-7.1c8.9,0,16.3,1.4,22.4,4.2c6.1,2.8,10.6,6.5,13.6,11c3,4.6,4.5,9.6,4.5,15
	c0,5.8-1.6,11.5-4.9,16.9c-3.3,5.4-8,9.9-14.1,13.3c7.6,1.4,13.2,4.9,16.9,10.5c3.7,5.6,5.5,12.3,5.5,20.1c0,7.2-1.4,15.1-4.1,23.6
	c-2.7,8.5-7.2,15.8-13.5,22C3024,2087.8,3016,2090.9,3006.2,2090.9L3006.2,2090.9z"/>
<path class="st1" d="M3086.3,1982.3c-4.2,0-7.7-1.5-10.6-4.4c-2.9-2.9-4.4-6.5-4.4-10.6c0-4.2,1.5-7.8,4.4-10.7
	c2.9-3,6.5-4.5,10.6-4.5c4.2,0,7.8,1.5,10.7,4.5c3,3,4.5,6.6,4.5,10.7c0,4.2-1.5,7.7-4.5,10.6
	C3094,1980.9,3090.4,1982.3,3086.3,1982.3L3086.3,1982.3z"/>
<path class="st0" d="M3073.3,2088.8c-6.1,0-11-1.9-14.7-5.7c-3.7-3.8-5.6-9.5-5.6-17.1c0-3.2,0.5-7.3,1.5-12.4l12.9-61h27.4
	l-13.7,64.6c-0.5,1.9-0.8,3.9-0.8,6.1c0,2.5,0.6,4.3,1.8,5.4c1.2,1.1,3.2,1.6,6,1.6c2.3,0,4.3-0.4,6.1-1.1
	c-0.5,6.3-2.8,11.2-6.7,14.5C3083.5,2087.1,3078.8,2088.8,3073.3,2088.8L3073.3,2088.8z"/>
<path class="st0" d="M3130.9,2088.8c-9.3,0-16.5-2.4-21.7-7.3c-5.2-4.9-7.8-12.5-7.8-22.9c0-8.7,1.7-18.4,5.2-28.9
	c3.5-10.5,9.1-19.6,16.7-27.3c7.7-7.7,17.4-11.5,29.2-11.5c7.7,0,13.2,1.6,16.3,4.9c3.2,3.3,4.8,7.5,4.8,12.7c0,4.6-1,8-2.9,10.3
	c-2,2.3-4.3,3.4-7.1,3.4c-2.4,0-4.6-0.8-6.7-2.3c1.5-4.1,2.3-7.8,2.3-11.2c0-5.2-1.7-7.8-5.1-7.8c-3.8,0-7.6,3.1-11.4,9.4
	c-3.8,6.3-6.9,13.7-9.4,22.4c-2.5,8.7-3.7,16.2-3.7,22.5c0,10.5,3.8,15.8,11.4,15.8c3.4,0,7.3-1,11.5-3.1c4.2-2.1,8-4.5,11.3-7.3
	C3160.4,2079.4,3149.4,2088.8,3130.9,2088.8L3130.9,2088.8z"/>
<path class="st0" d="M3207.9,2135.2c-6,0-11.2-1.9-15.7-5.8c-4.5-3.9-6.7-8.8-6.7-14.7c0-5.6,1.4-10.1,4.2-13.7
	c2.8-3.5,6.4-6.3,10.8-8.4c4.4-2,10.4-4.2,17.9-6.5l1.9-8.4c-6.5,7.3-14.2,11-23.2,11c-6.1,0-11-1.9-14.7-5.7
	c-3.7-3.8-5.6-9.5-5.6-17.1c0-3.2,0.5-7.3,1.5-12.4l12.9-61h27.4l-13.7,64.6c-0.4,1.5-0.6,3.1-0.6,4.8c0,5.6,1.9,8.4,5.7,8.4
	c3.5,0,6.6-1.5,9.1-4.5c2.5-3,4.6-7.1,6.1-12.3l12.9-61h27.6l-23.2,110.2c-2.5,12.2-7,20.6-13.4,25.3S3215.6,2135.2,3207.9,2135.2
	L3207.9,2135.2z M3203.5,2118.2c2.3,0,4.4-1.2,6.5-3.5c2-2.3,3.6-6.1,4.8-11.3l2.3-11.2c-6.7,2.3-11.9,4.9-15.6,8
	c-3.7,3-5.5,7-5.5,11.8c0,1.5,0.8,2.9,2.3,4.3C3199.7,2117.6,3201.5,2118.2,3203.5,2118.2L3203.5,2118.2z"/>
<path class="st0" d="M3296.3,2088.8c-9.3,0-16.5-2.4-21.7-7.3c-5.2-4.9-7.8-12.5-7.8-22.9c0-8.7,1.7-18.4,5.2-28.9
	s9.1-19.6,16.7-27.3c7.7-7.7,17.4-11.5,29.2-11.5c7.7,0,13.2,1.6,16.3,4.9c3.2,3.3,4.8,7.5,4.8,12.7c0,4.6-1,8-2.9,10.3
	c-2,2.3-4.3,3.4-7.1,3.4c-2.4,0-4.6-0.8-6.7-2.3c1.5-4.1,2.3-7.8,2.3-11.2c0-5.2-1.7-7.8-5.1-7.8c-3.8,0-7.6,3.1-11.4,9.4
	c-3.8,6.3-6.9,13.7-9.4,22.4c-2.5,8.7-3.7,16.2-3.7,22.5c0,10.5,3.8,15.8,11.4,15.8c3.4,0,7.3-1,11.5-3.1c4.2-2.1,8-4.5,11.3-7.3
	C3325.8,2079.4,3314.8,2088.8,3296.3,2088.8L3296.3,2088.8z"/>
<path class="st0" d="M3362.1,2088.8c-6.1,0-11-1.9-14.7-5.8c-3.7-3.9-5.6-9.7-5.6-17.4c0-3.2,0.5-7.3,1.5-12.4l20.3-95.2l28.1-3.8
	l-21.9,102.6c-0.5,1.9-0.8,3.7-0.8,5.5c0,5.1,2.6,7.6,7.8,7.6c2.3,0,4.3-0.4,6.1-1.1c-0.5,6.3-2.8,11.2-6.7,14.7
	C3372.2,2087,3367.5,2088.8,3362.1,2088.8L3362.1,2088.8z"/>
<path class="st0" d="M3421.2,2088.8c-9.3,0-16.5-2.4-21.7-7.3c-5.2-4.9-7.8-12.5-7.8-22.9c0-8.7,1.7-18.4,5.1-28.9
	c3.4-10.5,9-19.6,16.7-27.3c7.7-7.7,17.6-11.5,29.5-11.5c13.9,0,20.9,6.1,20.9,18.2c0,7.1-2,13.6-6.1,19.6
	c-4.1,6-9.4,10.7-16.2,14.4c-6.7,3.6-13.9,5.7-21.5,6.2c-0.3,2.8-0.4,4.7-0.4,5.7c0,10.5,3.9,15.8,11.8,15.8c3.5,0,7.4-0.9,11.4-2.9
	c4.1-1.9,7.7-4.3,11-7.2C3450.6,2079.4,3439.7,2088.8,3421.2,2088.8L3421.2,2088.8z M3421.6,2040.1c4.8-0.1,9.3-1.7,13.6-4.8
	c4.2-3,7.7-6.9,10.3-11.7c2.6-4.8,3.9-9.7,3.9-14.9s-1.6-7.8-4.8-7.8c-4.4,0-8.8,4-13.2,12.1
	C3427,2021.1,3423.7,2030.1,3421.6,2040.1L3421.6,2040.1z"/>
<path class="st1" d="M2792.2,1943.4c-1.4,4.2-1.5,9.5-0.7,14.3c0.2,1.5,0.5,2.9,0.9,4.1c0.3,1.1,0.7,2.2,1.2,3.1
	c0.1,0.2,0.1,0.3,0.2,0.4c0,0,0,0,0,0c0.1,0.2,0.1,0.2,0.1,0.2l34.4,64.6c7.8-2.7,16.1-4.2,24.8-4.2h0.1h0
	c20.9,0,39.8,8.6,53.6,22.3c1.3,1.3,2.6,2.7,3.8,4.1v-109H2792.2z"/>
<g>
	<g>
		<path class="st2" d="M2852.4,2078.1c-11.6,0-20.8,9.4-20.8,20.8c0,13.3,18.7,33.5,19.5,34.5c0.4,0.4,1,0.6,1.3,0.6
			c0.6,0,1.2-0.2,1.3-0.6c0.8-0.8,19.5-21.2,19.5-34.5C2873.2,2087.3,2863.9,2078.1,2852.4,2078.1z"/>
		<path class="st3" d="M2852.4,2135.2c-0.8,0-1.6-0.4-2.2-0.9l-0.1-0.1c0-0.1-0.2-0.3-0.4-0.5c-7.2-8.2-19.3-23.7-19.3-34.8
			c0-12.2,9.9-22,22-22c5.9,0,11.5,2.3,15.6,6.4c4.1,4.1,6.4,9.7,6.4,15.6c0,13.6-18,33.4-19.7,35.2
			C2854.3,2134.8,2853.4,2135.2,2852.4,2135.2z M2851.9,2132.5c0.1,0.1,0.4,0.2,0.5,0.2c0.1,0,0.3,0,0.3,0l0,0l0.1-0.1
			c0.2-0.2,19.1-20.6,19.1-33.6c0-10.8-8.8-19.6-19.6-19.6c-10.8,0-19.6,8.8-19.6,19.6c0,7.5,6.8,19.6,18.7,33.2
			C2851.7,2132.3,2851.8,2132.4,2851.9,2132.5z"/>
	</g>
	<circle class="st3" cx="2852.4" cy="2098.9" r="9.6"/>
</g>
<path class="st1" d="M2775.7,1974.7l-0.1-0.1c-0.4-0.8,0.2,0.4-0.3-0.6c-0.9-1.9-1.8-4.1-2.5-6.4c-0.6-2.2-1.2-4.5-1.5-6.9
	c-0.8-5.5-0.8-11.5,0.2-17.4h-25.7c-14.9,1.3-26.5,13.8-26.5,29v72.1c3.5-3.9,6.9-7.9,10.2-11.9c13.8-16.4,27.4-32.7,53.4-44.6
	L2775.7,1974.7z"/>
<path class="st0" d="M69.9,176.9L69.9,176.9c0-20.5,8.3-39.1,21.7-52.7l15.5,29c-4.3,6.9-6.8,15-6.8,23.6v0v0.1
	c0,12.3,5.1,23.6,13.2,31.7c8.1,8.1,19.3,13.1,31.7,13.1h0h0.1c12.3,0,23.6-5.1,31.7-13.2c8.1-8.1,13.1-19.3,13.1-31.7v0v-0.1
	c0-12.3-5.1-23.6-13.2-31.7c-8.1-8.1-19.3-13.1-31.7-13.1h0h-0.1c-3.5,0-6.8,0.4-10,1.1l22.4,42.1l-17.8,9.5l-8.6-16.1l0.1,0
	c-15.4-29-30.9-57.7-46.3-86.6c-22.5,10.1-34.7,24.7-47,39.4c-7.5,9-15.1,18.1-25.2,26.7c-0.1,0.1-0.3,0.2-0.4,0.3v48.4
	c0,16,12.9,28.9,28.9,28.9h46.7C76.7,212.6,69.9,195.5,69.9,176.9L69.9,176.9z"/>
<g>
	<path class="st0" d="M255.1,207.1H272v5.8h-26.6v-31.4h9.7V207.1z"/>
	<path class="st0" d="M319.4,207.1h-13.3l-2.3,5.9h-10.4l14.8-31.4h9.1l14.9,31.4h-10.4L319.4,207.1z M308.4,201.2h8.7l-4.3-10.9
		L308.4,201.2z"/>
	<path class="st0" d="M388.7,213H379l-14.3-19.5V213H355v-31.4h9.7l14.3,19.5v-19.5h9.7V213z"/>
	<path class="st0" d="M439.7,199.6h-15.3v7.5h18.1v5.8h-27.8v-31.4h27.8v5.8h-18.1v6.6h15.3V199.6z"/>
</g>
<g>
	<path class="st0" d="M574.2,181.5l9,21.9l9-21.9H605V213h-9.8v-7.3l0.9-15l-9.8,22.3H580l-9.8-22.4l0.9,15v7.3h-9.7v-31.4H574.2z"
		/>
	<path class="st0" d="M654.4,207.1h-13.3l-2.3,5.9h-10.4l14.8-31.4h9.1l14.9,31.4h-10.4L654.4,207.1z M643.4,201.2h8.7l-4.3-10.9
		L643.4,201.2z"/>
	<path class="st0" d="M699.8,202.3V213H690v-31.4h16.1c3.1,0,5.8,0.4,8.2,1.3c2.4,0.9,4.2,2.1,5.5,3.8c1.3,1.6,2,3.5,2,5.6
		c0,3.1-1.4,5.5-4.2,7.3s-6.7,2.8-11.6,2.8H699.8z M699.8,196.5h6.4c1.9,0,3.3-0.4,4.3-1.1c1-0.7,1.5-1.8,1.5-3.1
		c0-1.5-0.5-2.6-1.5-3.5c-1-0.9-2.4-1.3-4.2-1.3h-6.5V196.5z"/>
</g>
<path class="st0" d="M297,166.1c-5,0-9.4-1-13.1-3.1c-3.7-2.1-5.6-5.7-5.6-10.8c0-3.3,0.8-6.9,2.5-10.9c2.3,2.5,4.4,4.3,6.3,5.3
	c1.9,1,4.1,1.5,6.3,1.5c6.3,0,11-3.5,14-10.6c3.1-7,4.6-14.8,4.6-23.4c0-16-6-23.9-17.9-23.9c-3.4,0-6.3,0.2-8.7,0.6L270,162.9
	h-27.1L268.5,43l27.9-3.8l-8.9,41.9h1.1c4.8,0,9.2-1.5,13.4-4.6c4.1-3.1,7.5-7,10-11.7c2.5-4.7,3.8-9.5,3.8-14.2
	c0-5.8-2-10.6-6.1-14.5c-4.1-3.9-10.3-5.8-18.8-5.8c-7.7,0-15.1,1.7-22.4,5.2c-7.3,3.5-13.2,8.6-17.8,15.6
	c-4.6,6.9-6.9,15.3-6.9,25.1c0,4.6,0.4,7.9,1.3,9.7c0.9,1.8,1.3,2.9,1.3,3.1c-6.7,0-11.7-1.4-15.1-4.1c-3.4-2.7-5.1-7.1-5.1-13.3
	c0-8.5,3.2-16.7,9.6-24.3c6.4-7.7,14.9-13.9,25.5-18.6c10.6-4.7,21.7-7.1,33.4-7.1c8.8,0,16.2,1.4,22.2,4.1
	c6,2.8,10.5,6.4,13.5,10.9c3,4.5,4.4,9.5,4.4,14.9c0,5.8-1.6,11.4-4.9,16.8c-3.3,5.4-7.9,9.8-14,13.2c7.5,1.4,13.1,4.9,16.8,10.5
	c3.6,5.6,5.5,12.2,5.5,19.9c0,7.2-1.4,15-4.1,23.4c-2.7,8.4-7.2,15.7-13.4,21.8C314.6,163,306.6,166.1,297,166.1L297,166.1z"/>
<path class="st1" d="M376.3,58.4c-4.1,0-7.7-1.4-10.6-4.3c-2.9-2.9-4.3-6.4-4.3-10.6c0-4.1,1.4-7.7,4.3-10.7c2.9-3,6.4-4.4,10.6-4.4
	c4.1,0,7.7,1.5,10.7,4.4c3,3,4.4,6.5,4.4,10.7c0,4.1-1.5,7.7-4.4,10.6C384,57,380.5,58.4,376.3,58.4L376.3,58.4z"/>
<path class="st0" d="M363.5,164c-6,0-10.9-1.9-14.6-5.7c-3.7-3.8-5.6-9.4-5.6-17c0-3.1,0.5-7.2,1.5-12.3l12.8-60.5h27.1l-13.6,64.1
	c-0.5,1.9-0.8,3.9-0.8,6c0,2.5,0.6,4.3,1.8,5.4c1.2,1.1,3.2,1.6,5.9,1.6c2.3,0,4.3-0.4,6-1.1c-0.5,6.3-2.7,11.1-6.7,14.4
	C373.6,162.4,368.9,164,363.5,164L363.5,164z"/>
<path class="st0" d="M420.6,164c-9.2,0-16.3-2.4-21.5-7.3c-5.2-4.8-7.7-12.4-7.7-22.7c0-8.7,1.7-18.2,5.2-28.7
	c3.5-10.4,9-19.4,16.6-27.1c7.6-7.6,17.2-11.4,28.9-11.4c7.7,0,13.1,1.6,16.2,4.9c3.1,3.3,4.7,7.5,4.7,12.6c0,4.5-1,7.9-2.9,10.2
	c-1.9,2.3-4.3,3.4-7.1,3.4c-2.4,0-4.6-0.8-6.6-2.3c1.5-4,2.3-7.7,2.3-11.1c0-5.2-1.7-7.7-5.1-7.7c-3.8,0-7.5,3.1-11.3,9.3
	c-3.8,6.2-6.9,13.6-9.3,22.2c-2.5,8.6-3.7,16.1-3.7,22.3c0,10.4,3.8,15.6,11.3,15.6c3.4,0,7.2-1,11.4-3.1c4.2-2.1,7.9-4.5,11.2-7.3
	C449.9,154.7,439,164,420.6,164L420.6,164z"/>
<path class="st0" d="M497,210c-5.9,0-11.1-1.9-15.6-5.8c-4.5-3.8-6.7-8.7-6.7-14.6c0-5.5,1.4-10.1,4.1-13.6
	c2.8-3.5,6.3-6.3,10.7-8.3c4.4-2,10.3-4.1,17.7-6.4l1.9-8.3c-6.4,7.3-14.1,10.9-23,10.9c-6,0-10.9-1.9-14.6-5.7
	c-3.7-3.8-5.6-9.4-5.6-17c0-3.1,0.5-7.2,1.5-12.3l12.8-60.5h27.1L494,132.7c-0.4,1.5-0.6,3.1-0.6,4.7c0,5.5,1.9,8.3,5.7,8.3
	c3.5,0,6.5-1.5,9-4.4c2.5-3,4.5-7,6-12.2L527,68.6h27.3l-23,109.3c-2.5,12.1-6.9,20.4-13.3,25.1C511.7,207.7,504.6,210,497,210
	L497,210z M492.6,193.2c2.3,0,4.4-1.2,6.4-3.5c2-2.3,3.6-6.1,4.7-11.2l2.3-11.1c-6.7,2.3-11.8,4.9-15.5,7.9c-3.6,3-5.5,6.9-5.5,11.7
	c0,1.5,0.8,2.9,2.3,4.2C488.9,192.6,490.6,193.2,492.6,193.2L492.6,193.2z"/>
<path class="st0" d="M584.6,164c-9.2,0-16.3-2.4-21.5-7.3c-5.2-4.8-7.7-12.4-7.7-22.7c0-8.7,1.7-18.2,5.2-28.7
	c3.5-10.4,9-19.4,16.6-27.1c7.6-7.6,17.2-11.4,28.9-11.4c7.7,0,13.1,1.6,16.2,4.9c3.1,3.3,4.7,7.5,4.7,12.6c0,4.5-1,7.9-2.9,10.2
	c-1.9,2.3-4.3,3.4-7.1,3.4c-2.4,0-4.6-0.8-6.6-2.3c1.5-4,2.3-7.7,2.3-11.1c0-5.2-1.7-7.7-5.1-7.7c-3.8,0-7.5,3.1-11.3,9.3
	c-3.8,6.2-6.9,13.6-9.3,22.2c-2.5,8.6-3.7,16.1-3.7,22.3c0,10.4,3.8,15.6,11.3,15.6c3.4,0,7.2-1,11.4-3.1c4.2-2.1,7.9-4.5,11.2-7.3
	C613.9,154.7,603,164,584.6,164L584.6,164z"/>
<path class="st0" d="M649.9,164c-6,0-10.9-1.9-14.6-5.8c-3.7-3.8-5.6-9.6-5.6-17.2c0-3.1,0.5-7.2,1.5-12.3l20.2-94.4l27.9-3.8
	l-21.7,101.8c-0.5,1.9-0.8,3.7-0.8,5.5c0,5,2.6,7.5,7.7,7.5c2.3,0,4.3-0.4,6-1.1c-0.5,6.3-2.7,11.2-6.7,14.6
	C660,162.3,655.3,164,649.9,164L649.9,164z"/>
<path class="st0" d="M708.5,164c-9.2,0-16.3-2.4-21.5-7.3c-5.2-4.8-7.7-12.4-7.7-22.7c0-8.7,1.7-18.2,5.1-28.7
	c3.4-10.4,8.9-19.4,16.6-27.1c7.7-7.6,17.4-11.4,29.2-11.4c13.8,0,20.7,6,20.7,18.1c0,7-2,13.5-6,19.4c-4,5.9-9.4,10.7-16,14.2
	c-6.7,3.6-13.8,5.6-21.3,6.1c-0.3,2.8-0.4,4.6-0.4,5.7c0,10.4,3.9,15.6,11.7,15.6c3.5,0,7.3-0.9,11.3-2.8c4-1.9,7.7-4.3,10.9-7.2
	C737.7,154.7,726.8,164,708.5,164L708.5,164z M708.9,115.8c4.8-0.1,9.3-1.7,13.5-4.7c4.2-3,7.6-6.9,10.2-11.6
	c2.6-4.7,3.9-9.6,3.9-14.8c0-5.2-1.6-7.7-4.7-7.7c-4.4,0-8.8,4-13.1,12C714.2,96.9,711,105.8,708.9,115.8L708.9,115.8z"/>
<path class="st1" d="M84.7,19.8C83.3,24,83.2,29.2,84,34c0.2,1.5,0.5,2.8,0.9,4.1c0.3,1.1,0.7,2.2,1.2,3.1c0.1,0.2,0.1,0.3,0.2,0.4
	c0,0,0,0,0,0c0.1,0.2,0.1,0.2,0.1,0.2l34.1,64.1c7.7-2.7,16-4.2,24.6-4.2h0.1h0c20.7,0,39.5,8.5,53.1,22.1c1.3,1.3,2.6,2.7,3.8,4.1
	V19.8H84.7z"/>
<g>
	<g>
		<path class="st2" d="M144.4,153.4c-11.5,0-20.6,9.4-20.6,20.6c0,13.2,18.5,33.3,19.3,34.2c0.4,0.4,1,0.6,1.3,0.6
			c0.6,0,1.1-0.2,1.3-0.6c0.8-0.8,19.3-21,19.3-34.2C165,162.5,155.8,153.4,144.4,153.4z"/>
		<path class="st3" d="M144.4,210c-0.8,0-1.6-0.4-2.2-0.9l-0.1-0.1c0-0.1-0.2-0.3-0.4-0.5c-7.2-8.2-19.2-23.5-19.2-34.5
			c0-12.1,9.8-21.9,21.9-21.9c5.9,0,11.4,2.3,15.5,6.4c4.1,4.1,6.4,9.6,6.4,15.5c0,13.4-17.9,33.2-19.5,34.9
			C146.2,209.6,145.4,210,144.4,210z M143.9,207.4c0.1,0.1,0.4,0.2,0.4,0.2c0.1,0,0.3,0,0.3,0l0,0l0.1-0.1
			c0.2-0.2,18.9-20.5,18.9-33.3c0-10.7-8.7-19.4-19.4-19.4c-10.7,0-19.4,8.7-19.4,19.4c0,7.5,6.8,19.5,18.6,32.9
			C143.7,207.1,143.8,207.3,143.9,207.4z"/>
	</g>
	<circle class="st3" cx="144.4" cy="174" r="9.6"/>
</g>
<path class="st1" d="M68.3,50.9l-0.1-0.1c-0.4-0.8,0.2,0.4-0.3-0.6c-0.9-1.9-1.8-4-2.4-6.3c-0.6-2.2-1.2-4.5-1.5-6.8
	c-0.8-5.5-0.8-11.4,0.2-17.2H38.6c-14.8,1.3-26.3,13.7-26.3,28.8v71.5c3.5-3.9,6.8-7.8,10.1-11.8C36.1,92,49.6,75.9,75.4,64.1
	L68.3,50.9z"/>
</svg>
